<svg xmlns="http://www.w3.org/2000/svg" viewBox="0 0 1326.43 1011.11"><defs><style>.cls-1{fill:#101111;}.cls-2{fill:#fa7a7f;}.cls-3{fill:#f9f4ef;}</style></defs><g id="Layer_2" data-name="Layer 2"><g id="Layer_1-2" data-name="Layer 1"><path class="cls-1" d="M925.47,999.63c-3.34.28-6.69.8-10,.8-42.33.05-84.69-1.06-127,.44-22.6.81-27.36-18.35-20-32.74q2.49-4.85,4.94-9.7c.9-1.8,1.06-3.56-.89-4.76s-2.55.55-3.66,1.57c-29.61,27.18-64.36,44-103.76,51.49a236.56,236.56,0,0,1-80.5,1.73c-3.54-.54-7.22-.18-10.83-.24-13.2-5.09-27.44-6.84-40.46-12.48-10.85-4.71-22.82-7.82-32.28-14.49-20.91-14.72-41-30.72-55.82-52.19A275.2,275.2,0,0,1,423,891.46c-4.78,6.5-9.26,12.46-13.6,18.51-15.77,22-35.2,40.87-57.9,54.83-25.6,15.74-53.83,26.65-84.09,31.16a415.35,415.35,0,0,1-62.81,4.49q-79.86-.21-159.72-.09c-9.18,0-18.09-1-26.11-6C4.84,985.75-1.65,973.38.36,957q5-40.92,10.35-81.8C20.51,799.58,30.49,724,40.14,648.36c5.47-43,10.49-86,15.56-129,1.57-13.37,2-26.91,4.24-40.15.92-5.38-1.4-4-3.94-4-5.71,0-11.43.18-17.13-.05-10.44-.43-15.53-5.49-15.93-16-.7-18.28,3.29-36.11,5.77-54.06C34.67,362.06,40.87,319.05,47,276q6.08-40,12.16-79.92C68.05,137.4,76.87,78.68,85.94,20,88.09,6.1,96,0,110.17,0c43.9,0,87.8-.09,131.7.2,26.87.17,53,4,78.11,14.71,23.7,10.08,41.58,26.44,56.59,46.82,11.48,15.58,15.91,33.26,17.79,52,.63,6.39,2,12.7,3.21,20,8.91-6.74,17-13.48,26.1-18.75,33.72-19.45,70.19-24,108.22-21a154.31,154.31,0,0,1,68,22.14c4.46,2.69,7.91,7.37,11.18,11.63s5.51,3.59,8.85,0c7.09-7.58,14.63-14.74,21.92-22.14a24.38,24.38,0,0,1,18.69-7.82c26.49.32,53,.38,79.48,0,8-.11,14.71,1.17,19.77,7.69,2.51,3.23,4.59,3.21,8.06.48,9.05-7.1,19.3-12.59,30.61-14.58s19-8.14,26.44-16c11.74-12.25,24-24,36.23-35.77,4.72-4.56,8.08-10.1,13.95-14,6.54-4.36,13.2-5.38,20.13-5.46,28.31-.31,56.63-.14,84.94-.07,12.12,0,17.93,5.5,17.18,17.81-1.1,18.07-2.88,36.12-5.11,54.08-.48,3.91-.28,5.53,3.42,5.42,9.54-.26,19.14,1.39,28.6-.89l107-.42c13.61,2.17,17.72,11.85,18.92,23.89,1.1,11.09,2.27,22.18,3.54,34.52,7.92-8.35,15.06-16.2,22.55-23.7,8.44-8.44,17.15-16.61,25.81-24.83A28.93,28.93,0,0,1,1223.13,98c27,.23,54,0,81,0,16.56,0,23.77,9.35,19,25.27q-8.34,27.9-17.69,55.49c-23.77,70.42-52.45,139-78.49,208.56-3.18,8.49-5.9,17.14-8.83,25.71-1.05,2.66-2.11,5.31-3.17,8a.71.71,0,0,0-.16,1.21l-1.09,2.14a.72.72,0,0,0-.21.87q-1.53,4.38-3.08,8.74l-.09.66-1.35,2.58.1.48-3.09,7.48.08.28q-1.62,3.64-3.25,7.27s-.28.41-.29.41c-3.38,7.64-8.28,14.34-13.07,21.1-2.57,3.61-1.6,4.53,2.4,3.63q54.25.14,108.5.26c5.17,0,10.29.06,15.2,1.93l-.13-.09c.53,1.44,1.93,1.47,3.08,1.91,11.91,15.69,9.48,18-1.62,34.67q-6.06,9.07-12.06,18.16-16.69,25.25-34.31,49.81c-9.68,13.46-18.69,27.39-28.35,40.85-11.88,16.54-23,33.84-36.63,48.81-8.34,9.15-13.67,20.4-22.85,28.69-2.85,2.57-.66,5.13,1,7.48a492.48,492.48,0,0,1,27.74,44q39.91,71.67,80.18,143.14c11.75,20.77,11.42,25.77-5.24,47.15-9.91,12.72-21.1,24.34-30.38,37.68-8.1,11.63-20.16,18.55-35.69,18.37q-56.46-.66-112.91.06c-11.78.17-21.94-2.21-30.69-10.08a165.14,165.14,0,0,0-16.53-33.8l0-.14a3.27,3.27,0,0,0-1.54-3l-.05-.17a44,44,0,0,0-6.26-12.17l-.11-.24c-3.22-6.39-4.72-13.79-10.8-18.52-.17-.59-.33-1.18-.5-1.77-1.35-4.34-2.59-8.74-5.52-12.38l-.1-.18c-.14-1.18-.39-2.3-1.62-2.88v-.22c-3.69-7.85-7.09-15.86-11.21-23.48-1.81-3.36-2.92-.62-3.5,1.41L975.2,944.1l-1.32,1.65h0L970.67,950s-.32.36-.31.36l-1.65,2.29a.65.65,0,0,0-.43.65c-1.32,1.9-2.65,3.79-4,5.68l-.36.53c-.34.55-.69,1.1-1,1.65l-.07.1-1.31,1.81.05-.07a3.2,3.2,0,0,0-1.89,2.82c-8.29,10.89-14.85,23.18-26.46,31.4C930.59,999.08,927.8,998.13,925.47,999.63Zm-417.33-621-.11-.13a107.81,107.81,0,0,1-.88,20.07c-.88,6,1,9.8,8.3,9.71,23.37-.26,46.74,0,70.11-.14,8,0,10.93-3.18,11.36-11.3.27-4.92.48-9.84,1-14.74q3.33-32.82,6.83-65.63c2.38-22.38,5.28-44.73,7.14-67.16,1.79-21.63,6-43.12,3.91-65-2.89-30.42-17.64-52.24-45.83-64.4-38.65-16.68-78.12-15.71-117.21-2.71-40.52,13.46-68.1,51.6-69.57,92.59-.24,6.51,1.75,8.81,8.22,8.79,22.85-.07,45.7.19,68.55.42,5.64.06,8.6-1.49,9.83-8,3.38-17.86,18.2-28.68,35.74-27.32,9.88.76,17.49,9.09,18.19,19.92,1.11,16.89-1.24,21-13.61,23.85-25.07,5.74-50.31,10.83-75.17,17.38-46.52,12.25-79.69,38.08-86.59,89.1-3.61,26.64,5.54,56.59,33.37,70.81C405.83,417,431.15,418,457,411.86,478,406.92,494.5,394.93,508.14,378.63ZM230.2,442.54q-56.5,0-113,0c-9.56,0-14.5,3.53-15.74,11.23-.83,5.11-1.18,10.28-1.76,15.42-2.73,24.16-5.38,48.33-8.21,72.47-2.89,24.67-6,49.32-8.92,74-2.86,24.15-5.52,48.32-8.39,72.47-2.84,23.88-6,47.73-8.74,71.62-2.85,24.41-5.34,48.87-8.21,73.28-2.83,24.15-6.18,48.24-8.83,72.4-1.35,12.33,4.51,18.26,17.1,18.46,7.53.13,15.06.08,22.59,0,70.09-1.06,140.25,2.25,210.25-3,33.25-2.49,64.8-11.85,93.31-29.57,53.09-33,70.28-87.32,61.3-140.89-5.65-33.66-26.18-57.08-56.66-71.89-2.95-1.44-7.18-2-7.05-6.09.11-3.31,4-3.55,6.47-4.77,17.58-8.82,33.07-20.31,44.73-36.3,18-24.73,25.12-52.72,24-83.07-.94-25.77-9.5-48.51-27.6-67-26.26-26.78-60-36.32-96-38.61C304,440.39,267.07,442.21,230.2,442.54ZM902.6,682.23c1.8-34.66-9.24-71.05-20.19-92.48-32.21-63-82.63-100.71-153.48-110-38.43-5.05-75.61-1.34-111.62,13.68-104.2,43.47-163.89,166.34-142.24,274C497.71,880,596.89,941.55,700,927.5c62.46-8.51,111.66-39.74,150.24-88.45C886.25,793.55,903.3,741.35,902.6,682.23Zm3.21,241v-.36c16.11,0,32.24-.6,48.3.21,11.71.58,18.42-5.26,24.49-14q41.42-59.42,83.22-118.58c6.51-9.24,8.89-8.9,14.17,1.12,20.58,39.08,41.43,78,61.7,117.24,5.2,10,12.38,13.81,23.44,13.89,37,.25,74.08-1.46,111.1.71a7.88,7.88,0,0,0,7.15-4.2c3.73-6.26.39-10.88-2.31-15.71q-53.49-95.56-107.26-191c-4.08-7.2-4.67-12.46.51-19.51,34.83-47.5,69.25-95.3,103.81-143q16.15-22.3,32.31-44.59c2.16-3,3.61-6.25,1.57-10s-5.44-4-9.31-4c-35.58,0-71.16.08-106.74-.33-10.08-.12-17.12,3.29-22.62,11.9-9.59,15-19.95,29.46-30,44.13q-23.44,34.15-46.92,68.26c-4.72,6.85-8.24,6.77-12.63-.22-1-1.53-1.81-3.13-2.68-4.72-19.71-35.79-39.54-71.51-59-107.42-4.47-8.24-10.86-12.15-19.92-12.16-33.77,0-67.55-.1-101.31,0-9.31,0-12.78,6.5-8.16,14.75q52.59,93.87,105.37,187.63c2.16,3.82,2.09,6.21-.5,9.65q-62.94,83.61-124.06,168.55c-7.67,10.72-15.47,21.34-23,32.14-3.19,4.55-7.66,9.21-5.06,15.34,2.87,6.76,9.5,4,14.53,4.12C872.56,923.43,889.19,923.21,905.81,923.21ZM188.83,15.5c-30.31,0-53.17.05-76,0-5.25,0-9.22,1.34-10,7.23Q98.14,60.43,93.5,98.16,89.1,134,84.77,169.75c-2.79,22.85-5.64,45.7-8.41,68.55Q72.12,273.37,68,308.44c-3.6,30.31-7.14,60.63-10.8,90.94-.65,5.45,1.72,7.77,6.92,7.74q44.79-.22,89.6-.5c6.33,0,9.2-3.71,9.92-9.63.78-6.41,1.73-12.81,2.48-19.24,2.83-24.41,5.78-48.81,8.33-73.25,1-9.33,2.91-11.62,12.41-11.66,25.11-.11,50.25,1,75.08-4.6,43.43-9.78,77.1-32.25,97.16-73,11.19-22.73,16.88-46.86,18.8-72,2-26.16-1.45-51.24-16-73.58-22.75-35-57.74-48.17-97.21-52.66C237,13.82,209.13,16.21,188.83,15.5Zm895.25,98.08v-.08c-13.5,0-27,0-40.51,0-7.19,0-9,2.37-7.54,9.49,10,48.83,19.9,97.7,30.21,146.47,8.35,39.52,17.15,78.94,26,118.36,4.57,20.46-4.67,37.26-23.87,41.87-10.39,2.49-21.08,2.76-31.7,2-5.72-.4-8.45,2.55-9.15,7.29-1.46,10-2.92,20-3.26,30.06-.71,21,13.29,35.9,34.15,37.3,4.92.33,9.84.77,14.77.87,27.74.58,53.94-4.92,77.1-20.93,22.94-15.85,36.93-38.68,46.83-64,28.52-72.86,55.9-146.16,82.72-219.66,9.06-24.86,18.27-49.66,27.22-74.55,4.06-11.31,2.06-14.72-9.27-14.94-22.32-.44-44.65-.44-67-.46-14.53,0-17.23,2.36-21.2,16.1Q1188.7,201,1167.62,273.13c-1.25,4.3-2.48,9-8.09,8.69-5.27-.28-5.32-5.48-5.81-8.88-3.44-24-6.56-48.13-9.58-72.22-3.35-26.65-6.57-53.3-10.83-79.83-.89-5.53-3.37-7.45-8.72-7.37C1111.09,113.71,1097.58,113.58,1084.08,113.58ZM932.79,35.67v0c-12.73,0-25.48.41-38.18-.15-8.07-.35-10.32,3.53-10.9,10.55-1.43,17.29-3,34.57-4.93,51.82-1.39,12.65-1.63,12.62-14.21,12.64-3.12,0-6.28.37-9.34,0-8.39-1.12-11.12,3.68-11.75,10.76-1.66,18.58-3.36,37.16-4.79,55.77-.73,9.46-.07,9.89,9.78,9.91,3.37,0,6.77.24,10.12-.06,6.83-.61,8.76,2.82,8,8.92q-4.27,37-8.47,74c-3,26.53-7.18,53-5.4,79.82,1.74,26.17,12.59,46.36,39.12,55.72,12.34,4.36,24.9,5.87,37.75,6.15,19.2.41,38.38.42,57.34-3.25,5.3-1,9.85-3.16,10.6-9.46q3.82-32,7.7-63.93c.55-4.53-.8-6.91-5.78-6.71-5.45.22-10.91.19-16.36,0-23.67-.68-28.8-6.58-28-30.16,1.08-34,6.17-67.62,8.27-101.5.42-6.71,3.8-9.56,10.63-9.36,10.38.31,20.78-.19,31.16.14,6.3.2,9-2.61,9.51-8.5,1.73-19.08,3.44-38.16,5.36-57.21.59-5.8-1.67-8.07-7.36-8.08-8.57,0-17.14-.29-25.7-.71-13.47-.66-13.79-1.65-12.13-14.82,2.28-18,3.77-36,5.64-54.06.62-6-1.7-8.46-7.94-8.3C959.29,35.9,946,35.67,932.79,35.67Zm-186.09,123c1.15-11.71,2.22-23.44,3.48-35.14.88-8.11-.35-9.86-8.34-9.89-26.75-.08-53.5,0-80.24-.13-5.06,0-7.9,1.86-8.47,6.83C652,130,651,139.6,650,149.24c-2.35,22.12-4.65,44.24-7,66.36q-4.25,39.35-8.59,78.67c-2.1,19.16-4.82,38.23-6.38,57.46-1.31,16.08-3.79,32.07-4.6,48.23-.28,5.39,1.42,8.3,7.36,8.27q41.28-.17,82.58,0c6,0,9.18-3.14,9.78-8.81,1.67-15.95,3.5-31.9,4.64-47.9,2.18-30.46,4.41-60.94,9.68-91,4.3-24.57,16.14-44,42-51.42,9.66-2.78,19.55-1.94,29.38-1.92,4.2,0,7.09-1.3,7.85-5.6.71-4.07,1.17-8.2,1.59-12.31,2.47-23.95,4.78-47.91,7.4-71.84,1-8.92-1.06-11.83-9.86-11.22-15.29,1.06-29.17,5.93-41.16,15.85S754.12,144.83,746.7,158.67ZM606.2,479.37c-8.18-1.61-16.85-.09-22.87-7.66-1.54-1.93-3.34.11-4.8.82-5.35,2.61-10.55,5.56-16.75,5.54l-75.58-.2c-6.15,0-11.83-1.79-15-7.12-2.41-4-4.68-3.28-7.51-1.47-2.39,1.53-4.49,3.53-6.89,5.05-3.23,2-3.83,3.84-1.38,7.34,19.28,27.51,29.12,57.64,24.82,91.61-.25,2-1.52,5.06,1.39,6.07,2.69.93,3.91-1.92,5.47-3.55,11.86-12.35,23.8-24.64,35.55-37.1,13.22-14,28.19-26.26,43.56-37.49C578.22,492.42,591.47,484.3,606.2,479.37ZM280.33,347.43c-5.36,3.24-10.19,6.76-15.5,9.21-7.62,3.5-13.53,10.05-22.5,11.24-16.52,2.18-33,5.38-49.7,4.32-5.93-.37-7.74,2.39-8.43,7.44-1.61,11.79-3.36,23.57-5.11,35.34-1.46,9.83-1.5,10,8.47,10,30.87.18,61.74.06,92.61.44,5.77.07,6.42-1.57,4.65-6.42-6.52-17.87-7.85-36.31-6.09-55.16C279.23,358.59,281.4,353.44,280.33,347.43ZM872.2,480.33c-24.83-2.2-48.19-5.48-66.28-24.08-17.62-18.11-22.52-41-24.72-62.58L711.86,461c9.21.17,17.47,2.09,25.81,3.47,33.81,5.58,65.91,15.39,93,37.59,3.2,2.63,6.22,6.47,9.88,7.31,5.23,1.19,4.64-6.52,8.76-8.12a3.82,3.82,0,0,0,1.17-1C857.18,493.33,866.23,489,872.2,480.33Z"/><path class="cls-2" d="M533.66,1001c.19-.42.28-1.06.58-1.18s.81.3,1.23.48c-.18.42-.28,1.07-.58,1.18S534.08,1001.16,533.66,1001Z"/><path class="cls-2" d="M973.88,945.75l1.32-1.65Z"/><path class="cls-2" d="M961.53,963.06l1.31-1.81Z"/><path class="cls-3" d="M230.2,442.54c36.87-.33,73.8-2.15,110.62.19,36,2.29,69.77,11.83,96,38.61,18.1,18.46,26.66,41.2,27.6,67,1.12,30.35-6,58.34-24,83.07-11.66,16-27.15,27.48-44.73,36.3-2.45,1.22-6.36,1.46-6.47,4.77-.13,4.13,4.1,4.65,7.05,6.09,30.48,14.81,51,38.23,56.66,71.89,9,53.57-8.21,107.91-61.3,140.89C363.15,909,331.6,918.4,298.35,920.89c-70,5.23-140.16,1.92-210.25,3-7.53.11-15.06.16-22.59,0-12.59-.2-18.45-6.13-17.1-18.46,2.65-24.16,6-48.25,8.83-72.4,2.87-24.41,5.36-48.87,8.21-73.28,2.79-23.89,5.9-47.74,8.74-71.62,2.87-24.15,5.53-48.32,8.39-72.47,2.92-24.67,6-49.32,8.92-74,2.83-24.14,5.48-48.31,8.21-72.47.58-5.14.93-10.31,1.76-15.42,1.24-7.7,6.18-11.22,15.74-11.23Q173.7,442.49,230.2,442.54Zm20.58,284.69H219.14c-10.79,0-12.74,2.06-13.53,13.09-.52,7.22-1.57,14.39-2.38,21.59-1.78,15.94-3.85,31.85-5.23,47.82-.74,8.48,1.18,10,9.71,10,18.71,0,37.41.17,56.11-.07A80,80,0,0,0,297.45,812c20.11-9.52,27.88-27.23,26.19-47.49-1.74-20.71-11.85-30.85-34.53-35.73C276.35,726.06,263.24,728,250.78,727.23Zm4.63-97.64c4.16,0,8.31-.13,12.46,0,15.68.57,30.85-1.19,44.77-9.19,17.16-9.86,24.92-27.38,20.62-46.72C329.74,557.82,315,546,297,545.46c-20-.56-39.94-.37-59.92-.58-5-.06-7.79,2.12-8.37,7.12-.62,5.39-1.34,10.77-1.94,16.16q-2.86,25.8-5.69,51.61c-.79,7.09,2.56,10,9.43,9.85C238.81,629.46,247.11,629.58,255.41,629.59Z"/><path class="cls-3" d="M902.6,682.23c.7,59.12-16.35,111.32-52.39,156.82C811.63,887.76,762.43,919,700,927.5c-103.08,14-202.26-47.55-224.9-160.12-21.65-107.63,38-230.5,142.24-274,36-15,73.19-18.73,111.62-13.68,70.85,9.31,121.27,47,153.48,110C893.36,611.18,904.4,647.57,902.6,682.23ZM676.71,861.92c4.69-.88,5.12-4.64,5.9-7.69a465.07,465.07,0,0,1,17.2-55.07c14-35.77,36.13-64,72.62-79.1,15.82-6.53,32.58-9.31,49.36-12,3-.47,7-.64,7.24-4.51s-3.54-5.37-6.72-6.32c-8.36-2.47-16.83-4.57-25.2-7-39.57-11.54-68.86-34.12-81.28-75.16-6.53-21.56-8.72-43.91-12.7-65.94-.57-3.16-1.66-6.33-4.27-6.55-3.25-.27-4.82,2.76-5.5,6.24-2.34,11.87-5,23.69-7.6,35.5-12,53.91-43.17,90.22-97.18,105.38-10.63,3-21.34,5.67-32.07,8.26-2.8.68-5,1.54-5.13,4.72s2,4.48,4.86,5c4.8,1,9.59,2,14.41,2.89,50.47,9.54,82.75,38,93.6,89.24a422.39,422.39,0,0,1,7.52,52.82C672.09,856.58,672.54,860.45,676.71,861.92Z"/><path class="cls-3" d="M905.81,923.21c-16.62,0-33.25.22-49.87-.13-5-.11-11.66,2.64-14.53-4.12-2.6-6.13,1.87-10.79,5.06-15.34,7.55-10.8,15.35-21.42,23-32.14q60.9-85.1,124.06-168.55c2.59-3.44,2.66-5.83.5-9.65q-52.87-93.71-105.37-187.63c-4.62-8.25-1.15-14.72,8.16-14.75,33.76-.14,67.54-.07,101.31,0,9.06,0,15.45,3.92,19.92,12.16,19.49,35.91,39.32,71.63,59,107.42.87,1.59,1.72,3.19,2.68,4.72,4.39,7,7.91,7.07,12.63.22q23.47-34.11,46.92-68.26c10.06-14.67,20.42-29.16,30-44.13,5.5-8.61,12.54-12,22.62-11.9,35.58.41,71.16.34,106.74.33,3.87,0,7.24.25,9.31,4s.59,7-1.57,10q-16.1,22.34-32.31,44.59c-34.56,47.7-69,95.5-103.81,143-5.18,7.05-4.59,12.31-.51,19.51q54,95.31,107.26,191c2.7,4.83,6,9.45,2.31,15.71a7.88,7.88,0,0,1-7.15,4.2c-37-2.17-74.07-.46-111.1-.71-11.06-.08-18.24-3.84-23.44-13.89-20.27-39.24-41.12-78.16-61.7-117.24-5.28-10-7.66-10.36-14.17-1.12q-41.73,59.22-83.22,118.58c-6.07,8.71-12.78,14.55-24.49,14-16.06-.81-32.19-.21-48.3-.21Z"/><path class="cls-3" d="M188.83,15.5c20.3.71,48.13-1.68,75.84,1.48,39.47,4.49,74.46,17.64,97.21,52.66,14.52,22.34,18,47.42,16,73.58-1.92,25.17-7.61,49.3-18.8,72-20.06,40.74-53.73,63.21-97.16,73-24.83,5.59-50,4.49-75.08,4.6-9.5,0-11.44,2.33-12.41,11.66-2.55,24.44-5.5,48.84-8.33,73.25-.75,6.43-1.7,12.83-2.48,19.24-.72,5.92-3.59,9.59-9.92,9.63q-44.8.27-89.6.5c-5.2,0-7.57-2.29-6.92-7.74,3.66-30.31,7.2-60.63,10.8-90.94q4.17-35.07,8.41-70.14c2.77-22.85,5.62-45.7,8.41-68.55Q89.15,134,93.5,98.16q4.64-37.74,9.35-75.46c.73-5.89,4.7-7.25,10-7.23C135.66,15.55,158.52,15.5,188.83,15.5Zm31.26,87.74c-5.7.28-11.4.65-17.1.79-3.55.08-4.77,1.64-5.19,5.18-3.42,28.73-7.07,57.44-10.64,86.15-.69,5.53,2.12,8.34,7.37,8.61,5.43.28,10.9,0,16.34.17,36.15,1.25,58-18.73,59.85-54.86,1.11-21.42-8-37.62-24.51-43C237.75,103.57,228.91,103.41,220.09,103.24Z"/><path class="cls-3" d="M1084.08,113.58c13.5,0,27,.13,40.51-.06,5.35-.08,7.83,1.84,8.72,7.37,4.26,26.53,7.48,53.18,10.83,79.83,3,24.09,6.14,48.18,9.58,72.22.49,3.4.54,8.6,5.81,8.88,5.61.3,6.84-4.39,8.09-8.69q21-72.15,41.94-144.31c4-13.74,6.67-16.11,21.2-16.1,22.33,0,44.66,0,67,.46,11.33.22,13.33,3.63,9.27,14.94-9,24.89-18.16,49.69-27.22,74.55-26.82,73.5-54.2,146.8-82.72,219.66-9.9,25.3-23.89,48.13-46.83,64-23.16,16-49.36,21.51-77.1,20.93-4.93-.1-9.85-.54-14.77-.87-20.86-1.4-34.86-16.33-34.15-37.3.34-10.05,1.8-20.09,3.26-30.06.7-4.74,3.43-7.69,9.15-7.29,10.62.75,21.31.48,31.7-2,19.2-4.61,28.44-21.41,23.87-41.87-8.81-39.42-17.61-78.84-26-118.36-10.31-48.77-20.16-97.64-30.21-146.47-1.47-7.12.35-9.47,7.54-9.49,13.5,0,27,0,40.51,0Z"/><path class="cls-3" d="M508.14,378.63C494.5,394.93,478,406.92,457,411.86c-25.89,6.1-51.21,5.18-75.34-7.15-27.83-14.22-37-44.17-33.37-70.81,6.9-51,40.07-76.85,86.59-89.1,24.86-6.55,50.1-11.64,75.17-17.38,12.37-2.84,14.72-7,13.61-23.85-.7-10.83-8.31-19.16-18.19-19.92-17.54-1.36-32.36,9.46-35.74,27.32-1.23,6.5-4.19,8.05-9.83,8-22.85-.23-45.7-.49-68.55-.42-6.47,0-8.46-2.28-8.22-8.79,1.47-41,29.05-79.13,69.57-92.59,39.09-13,78.56-14,117.21,2.71,28.19,12.16,42.94,34,45.83,64.4,2.09,21.92-2.12,43.41-3.91,65-1.86,22.43-4.76,44.78-7.14,67.16q-3.5,32.8-6.83,65.63c-.5,4.9-.71,9.82-1,14.74-.43,8.12-3.41,11.28-11.36,11.3-23.37.09-46.74-.12-70.11.14-7.3.09-9.18-3.67-8.3-9.71A107.81,107.81,0,0,0,508,378.5c.53.53.9.44,1-.3,0-.19-.22-.41-.34-.62Zm-38.61-28c18.5.05,35.54-12.72,41.65-31.25,3.74-11.33,4.15-23.22,5.76-34.9.68-4.9-2.45-3.16-4.73-2.48-10.29,3.11-20.69,5.93-30.82,9.52-11.39,4-22.88,8.33-30.42,18.62-6.12,8.34-8.7,17.58-4.11,27.49C451.28,347.17,459.5,350.64,469.53,350.64Z"/><path class="cls-3" d="M932.79,35.67c13.24,0,26.5.23,39.74-.09,6.24-.16,8.56,2.34,7.94,8.3-1.87,18-3.36,36.09-5.64,54.06-1.66,13.17-1.34,14.16,12.13,14.82,8.56.42,17.13.69,25.7.71,5.69,0,8,2.28,7.36,8.08-1.92,19-3.63,38.13-5.36,57.21-.53,5.89-3.21,8.7-9.51,8.5-10.38-.33-20.78.17-31.16-.14-6.83-.2-10.21,2.65-10.63,9.36-2.1,33.88-7.19,67.52-8.27,101.5-.75,23.58,4.38,29.48,28,30.16,5.45.16,10.91.19,16.36,0,5-.2,6.33,2.18,5.78,6.71q-3.93,31.95-7.7,63.93c-.75,6.3-5.3,8.43-10.6,9.46-19,3.67-38.14,3.66-57.34,3.25-12.85-.28-25.41-1.79-37.75-6.15-26.53-9.36-37.38-29.55-39.12-55.72-1.78-26.78,2.39-53.29,5.4-79.82q4.2-37,8.47-74c.71-6.1-1.22-9.53-8-8.92-3.35.3-6.75.07-10.12.06-9.85,0-10.51-.45-9.78-9.91,1.43-18.61,3.13-37.19,4.79-55.77.63-7.08,3.36-11.88,11.75-10.76,3.06.42,6.22,0,9.34,0,12.58,0,12.82,0,14.21-12.64,1.89-17.25,3.5-34.53,4.93-51.82.58-7,2.83-10.9,10.9-10.55,12.7.56,25.45.15,38.18.15Z"/><path class="cls-3" d="M746.7,158.67c7.42-13.84,15.8-26.62,27.94-36.66s25.87-14.79,41.16-15.85c8.8-.61,10.84,2.3,9.86,11.22-2.62,23.93-4.93,47.89-7.4,71.84-.42,4.11-.88,8.24-1.59,12.31-.76,4.3-3.65,5.61-7.85,5.6-9.83,0-19.72-.86-29.38,1.92-25.87,7.45-37.71,26.85-42,51.42-5.27,30.08-7.5,60.56-9.68,91-1.14,16-3,31.95-4.64,47.9-.6,5.67-3.75,8.82-9.78,8.81q-41.3-.07-82.58,0c-5.94,0-7.64-2.88-7.36-8.27.81-16.16,3.29-32.15,4.6-48.23,1.56-19.23,4.28-38.3,6.38-57.46q4.3-39.33,8.59-78.67c2.38-22.12,4.68-44.24,7-66.36,1-9.64,2-19.27,3.14-28.9.57-5,3.41-6.86,8.47-6.83,26.74.17,53.49,0,80.24.13,8,0,9.22,1.78,8.34,9.89C748.92,135.23,747.85,147,746.7,158.67Z"/><path class="cls-1" d="M250.78,727.23c12.46.81,25.57-1.17,38.33,1.58,22.68,4.88,32.79,15,34.53,35.73,1.69,20.26-6.08,38-26.19,47.49a80,80,0,0,1-33.63,7.67c-18.7.24-37.4.11-56.11.07-8.53,0-10.45-1.56-9.71-10,1.38-16,3.45-31.88,5.23-47.82.81-7.2,1.86-14.37,2.38-21.59.79-11,2.74-13.09,13.53-13.09Z"/><path class="cls-1" d="M255.41,629.58c-8.3,0-16.6-.12-24.9,0-6.87.12-10.22-2.76-9.43-9.85q2.86-25.8,5.69-51.61c.6-5.39,1.32-10.77,1.94-16.16.58-5,3.4-7.18,8.37-7.12,20,.21,40,0,59.92.58,18,.5,32.74,12.36,36.26,28.24,4.3,19.34-3.46,36.86-20.62,46.72-13.92,8-29.09,9.76-44.77,9.19C263.72,629.46,259.57,629.59,255.41,629.58Z"/><path class="cls-1" d="M676.71,861.92c-4.17-1.47-4.62-5.34-4.94-9.22a422.39,422.39,0,0,0-7.52-52.82c-10.85-51.27-43.13-79.7-93.6-89.24-4.82-.91-9.61-1.94-14.41-2.89-2.81-.56-5-1.85-4.86-5s2.33-4,5.13-4.72c10.73-2.59,21.44-5.28,32.07-8.26,54-15.16,85.17-51.47,97.18-105.38,2.63-11.81,5.26-23.63,7.6-35.5.68-3.48,2.25-6.51,5.5-6.24,2.61.22,3.7,3.39,4.27,6.55,4,22,6.17,44.38,12.7,65.94,12.42,41,41.71,63.62,81.28,75.16,8.37,2.44,16.84,4.54,25.2,7,3.18,1,7,2.3,6.72,6.32s-4.25,4-7.24,4.51c-16.78,2.65-33.54,5.43-49.36,12-36.49,15.05-58.62,43.33-72.62,79.1a465.07,465.07,0,0,0-17.2,55.07C681.83,857.28,681.4,861,676.71,861.92Z"/><path class="cls-1" d="M220.09,103.24c8.82.17,17.66.33,26.12,3.08,16.49,5.34,25.62,21.54,24.51,43-1.87,36.13-23.7,56.11-59.85,54.86-5.44-.19-10.91.11-16.34-.17-5.25-.27-8.06-3.08-7.37-8.61,3.57-28.71,7.22-57.42,10.64-86.15.42-3.54,1.64-5.1,5.19-5.18C208.69,103.89,214.39,103.52,220.09,103.24Z"/><path class="cls-1" d="M469.53,350.64c-10,0-18.25-3.47-22.67-13-4.59-9.91-2-19.15,4.11-27.49,7.54-10.29,19-14.59,30.42-18.62,10.13-3.59,20.53-6.41,30.82-9.52,2.28-.68,5.41-2.42,4.73,2.48-1.61,11.68-2,23.57-5.76,34.9C505.07,337.92,488,350.69,469.53,350.64Z"/><path class="cls-1" d="M508.14,378.63l.55-1.05c.12.21.36.43.34.62-.1.74-.47.83-1,.3Z"/></g></g></svg>