<svg width="1271" height="1267" viewBox="0 0 1271 1267" fill="none" xmlns="http://www.w3.org/2000/svg">
<path fill-rule="evenodd" clip-rule="evenodd" d="M1218.79 51.6898H55.7706V319.66H4.08081V0H29.9257H1270.48V1266.4H4.08081V1111.33H55.7706V1214.71H1218.79V51.6898Z" fill="url(#paint0_linear_11_613)"/>
<path d="M51.6898 583.55V677.408H1.36026V424.4H93.8577C123.783 424.4 146.908 431.201 161.871 446.164C176.833 461.127 184.995 480.171 184.995 504.655C184.995 529.14 176.833 548.184 161.871 561.786C145.548 576.749 123.783 583.55 95.218 583.55H53.05H51.6898ZM88.4167 542.743C118.342 542.743 133.305 530.5 133.305 504.655C133.305 492.413 129.224 482.891 122.423 476.09C115.622 469.289 104.74 466.568 88.4167 466.568H51.6898V544.103H88.4167V542.743ZM342.785 625.718H240.766L223.082 676.048H170.032L263.89 425.76H321.021L413.518 676.048H360.468L342.785 625.718ZM329.182 587.631L292.455 480.171L255.728 587.631H330.543H329.182ZM561.786 677.408L501.935 578.109H480.171V677.408H429.841V424.4H526.42C556.345 424.4 578.109 431.201 593.072 446.164C608.035 461.127 616.197 478.81 616.197 503.295C616.197 522.339 610.756 538.662 599.873 550.904C588.991 563.146 574.029 572.668 553.625 576.749L616.197 677.408H560.426H561.786ZM480.171 544.103H522.339C550.904 544.103 565.867 531.86 565.867 506.016C565.867 493.773 561.786 484.251 554.985 477.45C548.184 470.649 537.302 466.568 522.339 466.568H480.171V544.103ZM818.875 424.4V465.208H749.502V678.768H699.172V465.208H629.799V424.4H820.235H818.875ZM1065.08 424.4L979.385 588.991V677.408H929.056V588.991L843.359 424.4H901.851L956.261 534.581L1010.67 424.4H1067.8H1065.08ZM141.467 874.645C156.43 877.366 168.672 885.527 178.194 896.409C187.715 907.291 191.796 920.894 191.796 935.857C191.796 957.621 184.995 973.944 170.032 986.186C156.43 998.429 134.665 1005.23 108.821 1005.23H0V752.222H106.1C131.945 752.222 150.989 757.663 164.591 768.545C178.194 779.427 184.995 795.75 184.995 816.154C184.995 832.477 180.914 844.72 172.753 854.241C164.591 863.763 153.709 870.565 140.106 874.645H141.467ZM50.3295 858.322H95.218C107.46 858.322 116.982 855.602 123.783 850.161C130.585 844.72 133.305 836.558 133.305 825.676C133.305 814.794 130.585 806.632 123.783 801.191C116.982 795.75 107.46 793.03 93.8577 793.03H48.9693V858.322H50.3295ZM97.9385 964.422C111.541 964.422 121.063 961.702 129.224 956.261C136.026 950.82 140.106 941.298 140.106 930.416C140.106 919.534 136.026 910.012 129.224 904.571C122.423 899.13 111.541 895.049 97.9385 895.049H50.3295V964.422H97.9385ZM345.505 748.141C368.63 748.141 390.394 753.582 409.437 764.464C428.481 775.347 443.444 790.309 454.326 810.713C465.208 831.117 470.649 852.881 470.649 877.366C470.649 901.85 465.208 924.975 454.326 944.018C443.444 964.422 428.481 979.385 409.437 990.267C390.394 1001.15 368.63 1006.59 345.505 1006.59C322.381 1006.59 300.617 1001.15 281.573 990.267C262.53 979.385 247.567 964.422 236.685 944.018C225.803 923.615 220.362 901.85 220.362 877.366C220.362 852.881 225.803 829.757 236.685 810.713C247.567 790.309 262.53 775.347 281.573 764.464C300.617 753.582 322.381 748.141 345.505 748.141ZM345.505 794.39C330.543 794.39 318.3 797.111 306.058 803.912C295.176 810.713 285.654 820.235 280.213 832.477C273.412 844.72 270.691 859.682 270.691 876.006C270.691 892.329 273.412 907.291 280.213 919.534C287.014 931.776 295.176 941.298 306.058 948.099C316.94 954.9 330.543 957.621 345.505 957.621C360.468 957.621 372.711 954.9 384.953 948.099C395.835 941.298 405.357 931.776 410.798 919.534C417.599 907.291 420.319 892.329 420.319 876.006C420.319 859.682 417.599 844.72 410.798 832.477C403.996 820.235 395.835 810.713 384.953 803.912C374.071 797.111 360.468 794.39 345.505 794.39ZM640.681 1005.23L583.55 918.174L533.221 1005.23H476.09L556.345 876.006L474.73 752.222H534.581L590.352 836.558L640.681 752.222H697.812L618.917 880.086L701.893 1006.59H642.041L640.681 1005.23Z" fill="black"/>
<defs>
<linearGradient id="paint0_linear_11_613" x1="1168.46" y1="1069.16" x2="54.4103" y2="193.157" gradientUnits="userSpaceOnUse">
<stop stop-color="#EF2368"/>
<stop offset="1" stop-color="#F93E4F"/>
</linearGradient>
</defs>
</svg>
